# xmcd CD database file
#
# Track frame offsets:
#	150
#	18617
#	43577
#
# Disc length: 826 seconds
#
# Revision: 0
# Processed by: cddbd v1.5PL3 Copyright (c) Steve Scherf et al.
# Submitted via: CDex 1.51
#
DISCID=1e033803
DTITLE=CARNATION - GARDEN CITY LIFE
DYEAR=1996
DGENRE=JPop
TTITLE0=GARDEN CITY LIFE
TTITLE1=1/2のミッドサマー
TTITLE2=GARDEN CITY LIFE (inest.)
EXTD=YEAR: 1996
EXTT0=
EXTT1=
EXTT2=
PLAYORDER=
